<?xml version="1.0" encoding="UTF-8"?>
<svg version="1.1" xmlns="http://www.w3.org/2000/svg" width="3200" height="902">
<path d="M0 0 C1.75304443 0.91942383 1.75304443 0.91942383 3.54150391 1.85742188 C50.36051741 26.59159408 99.23350063 58.18514555 130.5625 101.8125 C131.33464844 102.86308594 132.10679687 103.91367187 132.90234375 104.99609375 C148.71685722 127.0823459 160.43504101 152.34472706 165.875 179 C166.02227539 179.7216333 166.16955078 180.4432666 166.32128906 181.18676758 C169.16160694 196.38446376 169.99270652 211.89931705 170.81640625 227.30859375 C170.92288688 229.23602797 171.02974264 231.1634415 171.13694763 233.09083557 C171.35928477 237.10686272 171.57831893 241.12305072 171.79467773 245.1394043 C172.06750338 250.20225145 172.34684603 255.2647119 172.62832355 260.32708454 C174.37539785 291.77775209 175.75186866 323.14102253 175.74780273 354.64575195 C175.74772138 357.71352012 175.75470404 360.78113923 175.76831055 363.84887695 C176.14699439 450.76626822 176.14699439 450.76626822 158.5625 472.8125 C157.84707031 473.78703125 157.84707031 473.78703125 157.1171875 474.78125 C144.84924405 490.31653517 123.7263821 499.30038062 104.5625 501.8125 C89.0748392 502.7926342 73.57847688 501.62799307 61.37890625 490.890625 C60.04791426 489.55184943 58.73879549 488.19095084 57.453125 486.80859375 C55.6068357 484.85930898 53.68279212 483.15907805 51.625 481.4375 C36.36381295 468.24106179 25.86750656 452.04726186 23.5625 431.8125 C23.2752722 427.79304035 23.12046524 423.77322273 22.98388672 419.74609375 C22.92198812 417.9831321 22.92198812 417.9831321 22.85883904 416.18455505 C22.45129244 403.32213812 22.47746019 390.46340609 22.54846573 377.59640503 C22.57222838 373.24340286 22.58503108 368.89040396 22.59616089 364.53735352 C22.62903758 352.18206629 22.67095645 339.82685271 22.73388672 327.47167969 C22.76881821 320.59555332 22.79235271 313.71947816 22.80409515 306.84327221 C22.81073887 303.23827713 22.82266621 299.6335035 22.84912491 296.02859497 C23.13330434 256.26540478 20.80348579 208.98218061 -7.4375 177.8125 C-8.17484375 176.98234375 -8.9121875 176.1521875 -9.671875 175.296875 C-26.91575258 156.9259466 -52.49340808 147.76041988 -77.33984375 146.78125 C-102.02009456 146.68575205 -124.46313182 155.14406127 -143.4375 170.8125 C-144.61892578 171.74835938 -144.61892578 171.74835938 -145.82421875 172.703125 C-166.87715137 190.19212312 -178.77269112 218.64597813 -182.07421875 245.265625 C-183.43240013 261.60954753 -182.03991343 278.00619232 -180.8416748 294.31307983 C-180.55623361 298.21056282 -180.28127676 302.10867135 -180.00878906 306.00708008 C-178.94471233 321.17743224 -178.94471233 321.17743224 -177.7265625 336.3359375 C-176.36153016 352.75814786 -176.20117771 369.15376222 -176.125 385.625 C-176.11537231 386.78583099 -176.10574463 387.94666199 -176.0958252 389.14266968 C-175.84576396 424.26227739 -178.51704733 466.60581226 -204.6796875 493.15234375 C-217.55069392 505.56757799 -232.16727304 510.55995344 -249.875 511.1875 C-272.88235832 510.35086879 -295.22281274 502.58787064 -311.1953125 485.515625 C-328.89751048 464.17429921 -331.12063211 436.16640406 -331.9375 409.515625 C-331.97810547 408.28318054 -332.01871094 407.05073608 -332.06054688 405.78094482 C-332.18904592 401.87488288 -332.3136775 397.96871278 -332.4375 394.0625 C-332.56154531 390.17057831 -332.68655686 386.278699 -332.81445312 382.38690186 C-332.89356843 379.97816258 -332.97056687 377.56935234 -333.04492188 375.16046143 C-333.24157656 369.1585045 -333.54217724 363.18173472 -333.96704102 357.19140625 C-334.54336986 348.66533772 -334.53864354 340.16217279 -334.48209953 331.62007904 C-334.46432584 328.84089121 -334.45429119 326.06176376 -334.44618225 323.28253174 C-334.42206499 315.39256092 -334.38646174 307.50267224 -334.34155273 299.61279297 C-334.31441283 294.75082173 -334.2976075 289.88889644 -334.28668404 285.0268631 C-334.28057777 283.20125882 -334.27070936 281.37566224 -334.25660515 279.55010223 C-334.1320828 263.29208745 -334.64869121 246.77021984 -338.6875 230.9375 C-338.90365967 230.06875244 -339.11981934 229.20000488 -339.3425293 228.30493164 C-345.67060152 203.93790557 -360.83620119 184.18315019 -382.44921875 171.36328125 C-408.65781446 156.58171984 -438.82040713 148.97591955 -468.4375 156.8125 C-497.86004887 165.50649033 -523.36589586 184.42214557 -538.47265625 211.35546875 C-546.70834278 227.10993492 -551.84347085 245.00616432 -546.8125 262.625 C-540.21849643 281.48153652 -526.77196818 289.53297258 -509.8125 298.3125 C-485.67218242 310.88474526 -470.40685843 330.52974614 -462.27734375 356.2578125 C-452.70511547 388.24166508 -453.69606063 425.7720647 -469.14453125 455.80859375 C-484.96261066 484.54419447 -515.76145437 504.10140966 -546.60546875 513.0625 C-577.67176227 521.55012794 -610.31598742 519.70371807 -639.078125 504.76953125 C-644.56799374 501.57136353 -649.5026205 497.79893419 -654.4375 493.8125 C-655.06914063 493.34585937 -655.70078125 492.87921875 -656.3515625 492.3984375 C-666.56498213 484.50844982 -674.22191464 471.88800806 -680.4375 460.8125 C-680.9339502 459.92836426 -680.9339502 459.92836426 -681.44042969 459.02636719 C-701.03320394 423.57188286 -704.42927024 381.64626609 -704.66729546 341.88113213 C-704.68416879 339.15312349 -704.70741393 336.42522865 -704.73219299 333.69728088 C-704.80167807 325.95262703 -704.86221384 318.20792496 -704.91430664 310.46313477 C-705.06143029 289.1224087 -705.41743971 267.89300011 -706.99536133 246.60522461 C-711.03023432 190.29601494 -693.62337061 137.89634712 -658.4375 93.8125 C-657.98358887 93.24144531 -657.52967773 92.67039062 -657.06201172 92.08203125 C-644.91260879 76.9690371 -630.91415889 62.5155291 -615.4375 50.8125 C-614.02984375 49.67941406 -614.02984375 49.67941406 -612.59375 48.5234375 C-571.63094753 15.93939008 -521.30180906 -4.80250093 -469.4375 -11.1875 C-468.71836426 -11.28321289 -467.99922852 -11.37892578 -467.25830078 -11.47753906 C-429.74725784 -15.93382221 -391.89520144 -10.50429009 -357.4375 4.8125 C-356.18187256 5.3691333 -356.18187256 5.3691333 -354.90087891 5.93701172 C-342.58513245 11.46399848 -330.86708499 17.85377044 -319.16015625 24.55859375 C-299.5236086 35.79685788 -299.5236086 35.79685788 -278.4375 43.8125 C-277.62410156 44.05484375 -276.81070312 44.2971875 -275.97265625 44.546875 C-263.58019888 47.77022068 -251.47290148 45.45520689 -240.2578125 39.56640625 C-236.70583413 37.35748895 -233.43748221 34.86185236 -230.125 32.3125 C-170.3297816 -13.61394705 -69.70523442 -36.83003443 0 0 Z " fill="#BA271E" transform="translate(707.4375,167.1875)"/>
<path d="M0 0 C0.87173859 0.00215515 1.74347717 0.0043103 2.64163208 0.00653076 C61.16394261 0.23770428 116.92535225 20.62249382 159.375 61.3125 C159.90480469 61.81507324 160.43460938 62.31764648 160.98046875 62.83544922 C188.6619729 89.21013651 207.92883863 124.04849342 219.375 160.3125 C219.6323291 161.10994629 219.8896582 161.90739258 220.15478516 162.72900391 C223.6714301 173.74663693 226.28082383 184.91575044 228.5625 196.25 C228.8004126 197.39509033 229.0383252 198.54018066 229.28344727 199.7199707 C234.66840091 227.68589285 234.92751338 255.99619432 235.32880402 284.36300659 C235.47250682 294.12131674 235.65641535 303.87901501 235.8359375 313.63671875 C235.86582323 315.29014345 235.86582323 315.29014345 235.89631271 316.97697067 C236.19315984 333.24588098 236.61597498 349.50716598 237.1640625 365.76953125 C237.19849205 366.79194601 237.2329216 367.81436077 237.26839447 368.8677578 C237.60002255 378.64951936 237.94784688 388.43064347 238.30966949 398.21133232 C238.94762705 415.52352943 239.50308382 432.81890448 239.5078125 450.14453125 C239.50872517 450.83663696 239.50963783 451.52874268 239.51057816 452.24182129 C239.52391248 500.38908379 239.52391248 500.38908379 224.8125 516.5625 C203.35827691 536.37869116 166.49245771 532.62964047 139.5576582 532.71721697 C135.28028342 532.73313803 131.00297415 532.75986334 126.72564697 532.7852478 C119.52756781 532.82652498 112.32948414 532.86106974 105.13134766 532.890625 C95.12854965 532.93169844 85.12584047 532.98446265 75.12311316 533.03990483 C55.36716271 533.14849139 35.61119224 533.24880738 15.85501671 533.30512333 C13.24984324 533.31287227 10.64467476 533.32171583 8.039505 533.33061981 C3.49803802 533.34562623 -1.04342165 533.35601444 -5.58490705 533.3634727 C-7.3109173 533.36686828 -9.03692562 533.37153917 -10.76292849 533.37762189 C-23.80847144 533.42185419 -36.67678215 533.05668276 -49.625 531.3125 C-50.56553223 531.18891113 -51.50606445 531.06532227 -52.47509766 530.93798828 C-97.07901536 524.84859028 -140.71259959 508.11846696 -175.625 479.3125 C-176.19025391 478.84875977 -176.75550781 478.38501953 -177.33789062 477.90722656 C-189.66248142 467.73638179 -200.77003802 456.92053855 -210.625 444.3125 C-211.77355469 442.90677734 -211.77355469 442.90677734 -212.9453125 441.47265625 C-249.27421419 396.09073244 -266.13194445 336.79513887 -267.625 279.3125 C-267.64691406 278.52939453 -267.66882812 277.74628906 -267.69140625 276.93945312 C-268.626983 237.73878747 -262.61026332 198.66136948 -247.625 162.3125 C-247.29274414 161.50651367 -246.96048828 160.70052734 -246.61816406 159.87011719 C-235.60569368 133.56539995 -220.13278191 109.8482094 -200.8984375 88.80859375 C-199.40680459 87.17087308 -197.93209219 85.51754577 -196.4765625 83.84765625 C-186.67517091 72.64859329 -175.5122761 63.20740929 -163.625 54.3125 C-162.96870605 53.82104492 -162.31241211 53.32958984 -161.63623047 52.82324219 C-151.11436831 45.01532252 -140.21994399 38.39561387 -128.625 32.3125 C-127.98304688 31.96767578 -127.34109375 31.62285156 -126.6796875 31.26757812 C-87.83013744 10.42048693 -43.99662512 -0.19737238 0 0 Z M-64.625 187.3125 C-65.64078125 187.89 -66.6565625 188.4675 -67.703125 189.0625 C-74.3813939 193.0918466 -80.00157367 197.93357047 -85.625 203.3125 C-86.31335937 203.92609375 -87.00171875 204.5396875 -87.7109375 205.171875 C-103.24258897 219.53711786 -112.00330379 241.67888055 -113.0078125 262.54296875 C-113.83592876 293.07779215 -104.53923846 318.40744745 -83.49487305 340.83007812 C-63.6638284 361.32507249 -36.11499813 369.6733539 -8.16552734 370.28515625 C35.4488501 372.92039043 35.4488501 372.92039043 74.66015625 359.265625 C85.82152398 346.55336107 85.5143765 328.05402062 85.578125 312.12890625 C85.58382507 310.99331772 85.58952515 309.85772919 85.59539795 308.68772888 C85.60478944 306.29516514 85.61135845 303.9025888 85.61523438 301.51000977 C85.62489002 297.91593841 85.65595046 294.32245211 85.6875 290.72851562 C85.76848097 273.29337294 84.71703932 256.33802822 79.625 239.5625 C79.36823486 238.6974585 79.11146973 237.83241699 78.84692383 236.94116211 C73.30002938 218.84577442 64.86171281 202.79921281 51.375 189.3125 C50.74078125 188.67828125 50.1065625 188.0440625 49.453125 187.390625 C33.39893097 172.39786529 14.31624025 169.64841238 -6.68798828 170.18066406 C-26.8187233 171.08428808 -47.21190391 177.32235801 -64.625 187.3125 Z " fill="#E4660E" transform="translate(2960.625,151.6875)"/>
<path d="M0 0 C8.47875765 5.79878065 15.97490362 12.91345608 23.46484375 19.91015625 C25.15279993 21.48211544 26.85111921 23.04227433 28.55078125 24.6015625 C37.29124534 32.66262565 45.76006338 40.98565138 54.17578125 49.3828125 C54.71657318 49.92101624 55.25736511 50.45921997 55.81454468 51.01373291 C61.19277317 56.37162532 66.47537426 61.75184328 71.41186523 67.52563477 C74.79466054 71.34238315 78.47813334 74.871157 82.11328125 78.4453125 C87.11402755 83.36215367 91.9555516 88.31700669 96.52734375 93.63671875 C98.77645734 96.20159459 101.17228954 98.56175589 103.61328125 100.9453125 C106.68953184 103.97578865 109.69344176 107.02490475 112.48828125 110.3203125 C116.16086727 114.63160914 120.18396576 118.57169173 124.23193359 122.52685547 C127.03011928 125.28063906 129.69131848 128.08175179 132.23828125 131.0703125 C137.36801583 137.00671631 143.03517179 142.43548652 148.61328125 147.9453125 C155.34286995 154.59252209 161.99122831 161.22401807 168.11328125 168.4453125 C169.11029631 169.56776266 170.11026202 170.68759941 171.11328125 171.8046875 C184.78979874 187.19020379 196.91589338 203.55515835 207.11328125 221.4453125 C207.50708984 222.1259375 207.90089844 222.8065625 208.30664062 223.5078125 C236.80255071 273.1489289 245.06970879 337.11555659 237.11328125 393.4453125 C236.98969238 394.3429834 236.86610352 395.2406543 236.73876953 396.16552734 C230.36286893 440.84320176 211.74699443 483.01564501 181.09765625 516.2734375 C179.35209823 518.18393013 177.69470674 520.13535464 176.05078125 522.1328125 C173.36276978 525.29344137 170.38416686 527.96437846 167.22265625 530.64453125 C165.83510875 531.82908569 164.4693849 533.03977586 163.12890625 534.27734375 C124.84731579 569.60866126 73.07686711 588.69184492 22.11328125 595.4453125 C21.22962891 595.56245605 20.34597656 595.67959961 19.43554688 595.80029297 C-37.80850211 602.98247883 -96.99290576 592.55807318 -147.88671875 565.4453125 C-148.52738281 565.11096191 -149.16804688 564.77661133 -149.828125 564.43212891 C-201.16744968 537.52491326 -238.50079115 489.97984871 -255.70092773 435.04443359 C-258.72803812 424.97801904 -260.96756747 414.77517049 -262.88671875 404.4453125 C-263.13663574 403.14835449 -263.13663574 403.14835449 -263.39160156 401.82519531 C-268.97254778 371.54018489 -267.75365748 337.73256588 -262.88671875 307.4453125 C-262.7475 306.51090332 -262.60828125 305.57649414 -262.46484375 304.61376953 C-253.80610601 247.35987059 -211.20754814 194.62554091 -176.69775391 149.79980469 C-175.11357763 147.74024739 -173.535358 145.67639197 -171.9609375 143.609375 C-166.74325776 136.76874558 -161.36453798 130.07891274 -155.88671875 123.4453125 C-154.44912573 121.67455468 -153.01162708 119.90372024 -151.57421875 118.1328125 C-147.12640735 112.69659856 -142.56655117 107.36239171 -137.98046875 102.04296875 C-135.9672675 99.7074787 -133.96743714 97.36174848 -131.98046875 95.00390625 C-121.82523206 82.9829679 -111.09585321 71.52367852 -99.88671875 60.48046875 C-98.23079469 58.79543665 -96.7280532 57.10520097 -95.26171875 55.2578125 C-92.75624009 52.2907983 -90.06366995 49.9302579 -87.11328125 47.421875 C-84.65225306 45.23717278 -82.37167865 42.92612059 -80.07421875 40.5703125 C-75.84724123 36.29816117 -71.42021967 32.4662327 -66.72265625 28.72265625 C-63.80403393 26.37891408 -60.97566151 23.94717216 -58.13671875 21.5078125 C-44.18995334 9.90352706 -18.68486084 -10.70915872 0 0 Z M-36.88671875 226.4453125 C-37.57813965 227.11771973 -38.26956055 227.79012695 -38.98193359 228.48291016 C-46.65028139 235.94340671 -54.2012922 243.37052295 -60.8046875 251.8046875 C-62.70836369 254.21910609 -64.6881616 256.54640724 -66.70581055 258.86572266 C-98.20632455 295.17166537 -98.20632455 295.17166537 -112.88671875 339.4453125 C-112.93828125 340.363125 -112.98984375 341.2809375 -113.04296875 342.2265625 C-113.84774068 368.78403635 -104.65549505 394.51026491 -86.47558594 413.95458984 C-67.61052295 433.22253384 -41.20978879 443.30700141 -14.48364258 443.73803711 C15.02113904 443.90311878 38.07778043 434.21786956 59.11328125 413.4453125 C79.18985237 393.40091537 88.43926109 368.55146893 88.49389648 340.49975586 C88.34879358 331.48038154 86.76843221 323.83440361 82.61328125 315.8203125 C82.26217285 315.13428955 81.91106445 314.4482666 81.54931641 313.74145508 C77.62524797 306.25653066 73.01269324 299.32018834 68.11328125 292.4453125 C67.57896484 291.69314453 67.04464844 290.94097656 66.49414062 290.16601562 C59.250651 280.02513015 51.67275943 270.33977196 43.44335938 260.98583984 C41.41051851 258.6313564 39.4870515 256.19188273 37.55078125 253.7578125 C33.53868728 248.80470013 29.16356943 244.39448317 24.61328125 239.9453125 C22.59306135 237.9250926 20.73623311 235.89934086 18.92578125 233.6953125 C15.69672485 229.8241142 11.9728078 226.67158339 8.11328125 223.4453125 C7.25347656 222.69765625 6.39367188 221.95 5.5078125 221.1796875 C-12.94295306 205.46140485 -20.88597704 210.6689385 -36.88671875 226.4453125 Z " fill="#1B6796" transform="translate(1174.88671875,87.5546875)"/>
<path d="M0 0 C0.79664063 0.71027344 1.59328125 1.42054688 2.4140625 2.15234375 C3.27257813 2.91417969 4.13109375 3.67601562 5.015625 4.4609375 C6.71168486 5.98021771 8.40076981 7.50732838 10.08203125 9.04296875 C12.15705024 10.91987035 14.27383311 12.72594827 16.4140625 14.52734375 C24.10808294 21.24606582 30.63323996 29.23485863 37.01953125 37.17578125 C38.71351855 39.28152077 40.42142558 41.36671267 42.15234375 43.44140625 C54.58215772 58.4711108 65.43124328 74.83763424 74.4140625 92.15234375 C74.77806152 92.84376465 75.14206055 93.53518555 75.51708984 94.24755859 C96.21363893 134.01827679 100.81851277 177.35446305 100.92578125 221.4921875 C100.94117413 224.20327222 100.9607658 226.91432295 100.98017883 229.62538147 C101.02325903 235.97401958 101.05211599 242.32263416 101.07550222 248.671372 C101.10239041 255.76130572 101.14659965 262.85109891 101.1917727 269.94093573 C101.28821852 285.19190771 101.35385711 300.44286171 101.40271759 315.69406509 C101.41346348 318.96974376 101.42550674 322.24541497 101.43792725 325.52108765 C101.45492422 330.13718875 101.46754114 334.75327669 101.47562599 339.36940193 C101.47877469 340.960412 101.48306465 342.55142037 101.4886837 344.14242363 C101.62570121 385.70541172 96.69331164 434.08180785 66.8828125 465.83203125 C55.938656 476.11815302 43.61256824 480.80815364 28.7253418 480.62548828 C11.32108261 479.8985918 -1.69986685 471.02133671 -13.5859375 459.15234375 C-14.25625 458.49363281 -14.9265625 457.83492187 -15.6171875 457.15625 C-42.88487074 428.33926657 -39.92146392 385.31995199 -39.1484375 348.77734375 C-39.09869708 346.40039098 -39.0489738 344.02343786 -38.99926758 341.64648438 C-38.96250664 339.88898361 -38.96250664 339.88898361 -38.92500305 338.09597778 C-37.89401175 288.60111215 -37.10609608 238.2337687 -50.5859375 190.15234375 C-50.79331543 189.41113281 -51.00069336 188.66992188 -51.21435547 187.90625 C-58.23738525 163.53323742 -71.74572428 139.07834616 -94.34960938 126.14306641 C-114.81818996 115.18719806 -137.26104355 112.19546373 -159.64013672 118.75439453 C-188.72242034 128.06714306 -215.46994594 150.01086641 -229.5859375 177.15234375 C-231.92619364 182.37114059 -233.81002302 187.71944747 -235.5859375 193.15234375 C-235.8540625 193.93867188 -236.1221875 194.725 -236.3984375 195.53515625 C-240.17502705 208.91057758 -238.05802649 223.47510213 -231.9609375 235.65234375 C-226.49332708 245.19043563 -218.82165302 252.09104486 -210.26855469 258.82421875 C-179.65094178 282.99134211 -161.1480325 307.32069348 -156.0859375 347.09375 C-152.36583974 381.1051367 -161.80161429 414.21599463 -183.0234375 440.90234375 C-202.51997464 463.86119697 -228.71658545 479.46833948 -258.984375 482.90625 C-285.19656915 484.69732183 -316.97117025 480.94353972 -338.2734375 463.96484375 C-339.7194756 462.70373415 -341.15728415 461.43311431 -342.5859375 460.15234375 C-343.39160156 459.54261719 -344.19726562 458.93289063 -345.02734375 458.3046875 C-378.78028856 429.91098889 -385.46951643 372.669379 -389.02734375 332.0859375 C-389.21708944 329.77502815 -389.40362047 327.46385105 -389.5859375 325.15234375 C-389.65796387 324.25660645 -389.72999023 323.36086914 -389.80419922 322.43798828 C-396.25979255 236.93990472 -388.80745899 136.46243468 -323.5859375 39.15234375 C-321.31059092 36.52895896 -319.000081 33.94994286 -316.64453125 31.3984375 C-314.85214788 29.44280099 -313.15553806 27.44190117 -311.4609375 25.40234375 C-296.37402704 8.25344097 -277.50761306 -5.82138072 -257.5859375 -16.84765625 C-256.90337891 -17.23727539 -256.22082031 -17.62689453 -255.51757812 -18.02832031 C-234.96804854 -29.72987841 -212.71055341 -37.9663078 -189.5859375 -42.84765625 C-188.14250977 -43.16089844 -188.14250977 -43.16089844 -186.66992188 -43.48046875 C-123.95583075 -56.49271615 -49.32063414 -42.22029517 0 0 Z " fill="#62972E" transform="translate(1829.5859375,201.84765625)"/>
<path d="M0 0 C3.02659292 2.71534586 5.9719604 5.5100993 8.91796875 8.3125 C9.69914062 9.01761719 10.4803125 9.72273438 11.28515625 10.44921875 C26.30117171 24.47663533 38.18381786 45.23579014 39.1953125 65.9609375 C39.69794712 83.14730556 35.48740863 98.76118433 23.60546875 111.625 C21.74583104 113.56413658 19.84415049 115.43693714 17.91796875 117.3125 C17.07878906 118.1375 16.23960937 118.9625 15.375 119.8125 C-0.98667544 135.21172394 -18.49503075 139.01307605 -40.28361511 138.43829346 C-44.66333792 138.24141764 -48.97965924 137.74678383 -53.32421875 137.171875 C-54.78896889 136.97887817 -54.78896889 136.97887817 -56.28330994 136.78198242 C-69.84431158 134.89835774 -83.23627679 132.05128086 -96.64453125 129.3125 C-130.701747 122.18024593 -130.701747 122.18024593 -165.33203125 119.875 C-166.00971558 119.87770905 -166.6873999 119.88041809 -167.38562012 119.88320923 C-190.91119117 120.02466001 -212.12901519 126.23855687 -229.61328125 142.69921875 C-250.13647742 164.42393115 -262.01198393 199.71750878 -262.08203125 229.3125 C-260.86993801 253.47531528 -248.92000866 271.39369218 -231.70703125 287.5625 C-208.34509673 307.56926307 -175.58043801 316.30195285 -145.3359375 314.03125 C-114.75880988 311.17100353 -91.42506816 296.42696813 -70.51513672 274.77514648 C-56.16456545 259.96190813 -38.54569886 244.50212423 -16.89453125 243.9375 C2.31217746 243.8668871 21.35898152 253.25546639 35.91796875 265.3125 C36.63339844 265.90289062 37.34882813 266.49328125 38.0859375 267.1015625 C49.42058381 277.40578641 55.39523369 292.64253654 56.79296875 307.625 C58.16295838 340.98424752 40.42836342 374.09542894 19.91796875 399.3125 C19.22703125 400.19292969 18.53609375 401.07335937 17.82421875 401.98046875 C9.46779206 412.47141748 0.41499296 422.90740944 -10.08203125 431.3125 C-11.09523438 432.14007812 -12.1084375 432.96765625 -13.15234375 433.8203125 C-56.92206921 469.20940077 -110.62115243 485.5743445 -166.39453125 486.875 C-167.24240204 486.89518188 -168.09027283 486.91536377 -168.96383667 486.93615723 C-173.95531494 487.0537882 -178.94693831 487.16187602 -183.9387207 487.26568604 C-185.81278129 487.30661907 -187.68668477 487.35462103 -189.56054688 487.40380859 C-245.76622634 488.86769242 -296.18821463 461.13225994 -336.16064453 423.34765625 C-344.37850382 415.43177052 -352.06157682 407.3191684 -359.08203125 398.3125 C-360.01914918 397.17331812 -360.95946129 396.03675903 -361.90234375 394.90234375 C-369.40374297 385.82380808 -375.96321269 376.37030801 -382.08203125 366.3125 C-382.56671875 365.52133789 -383.05140625 364.73017578 -383.55078125 363.91503906 C-403.74900626 330.65897718 -416.34147625 293.89264294 -421.08203125 255.3125 C-421.28119141 253.71535156 -421.28119141 253.71535156 -421.484375 252.0859375 C-428.42227181 181.56649323 -401.37441374 116.32742824 -357.58886719 62.47607422 C-354.47872513 58.70395505 -351.31498839 54.98000553 -348.08203125 51.3125 C-347.43347168 50.57636475 -346.78491211 49.84022949 -346.11669922 49.08178711 C-340.50367923 42.77503003 -334.67410472 36.72146102 -328.70703125 30.75 C-327.83820312 29.86892578 -326.969375 28.98785156 -326.07421875 28.08007812 C-320.05983656 22.05235041 -313.76339296 16.58642469 -307.08203125 11.3125 C-306.015896 10.45748901 -306.015896 10.45748901 -304.92822266 9.58520508 C-294.15260514 0.98366249 -282.91114108 -6.61424573 -271.08203125 -13.6875 C-270.35435547 -14.12690918 -269.62667969 -14.56631836 -268.87695312 -15.01904297 C-189.17930828 -62.72563409 -71.98970939 -63.45008502 0 0 Z " fill="#721E62" transform="translate(2605.08203125,197.6875)"/>
<path d="M0 0 C6.69648595 5.60489576 8.95814671 11.66133738 9.78125 20.28515625 C9.89992432 21.5162915 10.01859863 22.74742676 10.14086914 24.01586914 C10.26157603 25.36465728 10.38125075 26.7135381 10.5 28.0625 C10.56347626 28.76647919 10.62695251 29.47045837 10.69235229 30.19577026 C13.00057458 55.96199759 13.9947575 81.75324819 14.75596619 107.60615826 C15.88051418 145.77989596 17.71599609 183.79677624 21.5 221.8125 C21.60164459 222.85210876 21.70328918 223.89171753 21.80801392 224.96282959 C23.01996995 244.60351333 23.01996995 244.60351333 30.9375 262.0625 C31.74213647 263.14950053 32.54267381 264.23954322 33.33984375 265.33203125 C33.76765137 265.91291504 34.19545898 266.49379883 34.63623047 267.09228516 C54.91738415 295.46266376 70.39179525 327.49797143 65.5 363.23046875 C61.95373112 382.67449985 52.85395729 401.79105492 36.53125 413.61328125 C21.4735691 423.89276764 5.64063102 428.04362134 -12.58203125 425.5 C-29.5114394 422.21491088 -44.00273023 414.17639623 -57 403 C-58.21623047 401.96746094 -58.21623047 401.96746094 -59.45703125 400.9140625 C-102.87089086 363.0380338 -118.86467955 304.19465527 -123.26586914 248.64428711 C-124.3098304 232.80730299 -124.63706777 216.92588166 -125.0625 201.0625 C-125.08457016 200.24464272 -125.10664032 199.42678543 -125.12937927 198.58414459 C-125.89437743 169.99336141 -126.22026486 141.40911816 -126.24631882 112.80839157 C-126.24995738 109.90896071 -126.2572503 107.00955926 -126.26541138 104.11013794 C-126.48393958 15.97407599 -126.48393958 15.97407599 -113.75 0.375 C-110.21012434 -3.09723472 -106.4076447 -5.74756392 -102 -8 C-101.319375 -8.35835937 -100.63875 -8.71671875 -99.9375 -9.0859375 C-71.47229316 -22.23132816 -25.81818803 -16.77953202 0 0 Z " fill="#996923" transform="translate(2101,259)"/>
<path d="M0 0 C1.47904748 1.2254202 2.9367616 2.47693032 4.375 3.75 C5.18710938 4.46800781 5.99921875 5.18601562 6.8359375 5.92578125 C26.13870161 24.07037952 35.66507884 51.6987897 36.53173828 77.78759766 C38.08379216 139.30178168 38.08379216 139.30178168 20.3125 158.375 C2.47771317 175.31206266 -22.66164211 181.15529992 -46.625 180.75 C-66.30932602 179.99191655 -85.87655976 174.16216589 -99.63671875 159.3203125 C-110.21428102 145.64637149 -115.07819776 125.72566505 -116.625 108.75 C-116.69058105 108.06244629 -116.75616211 107.37489258 -116.82373047 106.66650391 C-119.24625715 79.63528888 -116.16980043 51.50586071 -104.625 26.75 C-104.18671875 25.780625 -103.7484375 24.81125 -103.296875 23.8125 C-95.35467836 7.74552749 -81.11357934 -2.95160247 -64.60546875 -9.25390625 C-42.21655098 -16.73644102 -19.22129597 -14.25663314 0 0 Z " fill="#996923" transform="translate(2085.625,13.25)"/>
<path d="M0 0 C0.96890167 -0.00686325 1.93780334 -0.0137265 2.93606567 -0.02079773 C6.10800231 -0.03895387 9.27943906 -0.03524431 12.45141602 -0.02954102 C14.67521829 -0.03410803 16.89901915 -0.03941515 19.12281799 -0.04542542 C23.77187859 -0.05433448 28.42076719 -0.0519583 33.06982422 -0.04199219 C39.00550867 -0.03050311 44.94059814 -0.0507249 50.87620449 -0.07990932 C55.46523258 -0.09832005 60.05411935 -0.09796917 64.64317513 -0.0922718 C66.83067726 -0.0921192 69.01818934 -0.0981128 71.20565605 -0.11056328 C96.21134007 -0.23285983 96.21134007 -0.23285983 103.7016449 6.01783752 C108.55242306 10.89196196 110.65315346 16.93901614 110.87768555 23.72387695 C110.86463379 24.87388184 110.85158203 26.02388672 110.83813477 27.20874023 C110.8279834 28.37131348 110.81783203 29.53388672 110.80737305 30.73168945 C110.79432129 31.61356934 110.78126953 32.49544922 110.76782227 33.40405273 C106.47697545 34.40759311 102.18501511 35.40628644 97.89282227 36.40405273 C96.66950195 36.69022461 95.44618164 36.97639648 94.18579102 37.27124023 C93.01918945 37.54194336 91.85258789 37.81264648 90.65063477 38.09155273 C89.57185059 38.34291992 88.49306641 38.59428711 87.3815918 38.85327148 C84.76782227 39.40405273 84.76782227 39.40405273 82.76782227 39.40405273 C82.76782227 34.45405273 82.76782227 29.50405273 82.76782227 24.40405273 C54.38782227 24.40405273 26.00782227 24.40405273 -3.23217773 24.40405273 C-3.23217773 33.31405273 -3.23217773 42.22405273 -3.23217773 51.40405273 C0.7176709 51.38834229 0.7176709 51.38834229 4.74731445 51.37231445 C13.48437753 51.33905388 22.22144352 51.31703499 30.95855331 51.30042839 C36.25161867 51.29002739 41.54461871 51.27593601 46.83764648 51.25317383 C51.9534697 51.23131341 57.0692304 51.21945646 62.18509674 51.21429825 C64.12894931 51.21062606 66.07279877 51.20345572 68.01662445 51.19259262 C97.17309546 51.03625184 97.17309546 51.03625184 106.45532227 58.59155273 C112.2949276 65.69377544 112.92173481 74.4074538 112.93579102 83.32983398 C112.93911942 84.07686081 112.94244781 84.82388763 112.94587708 85.59355164 C112.95091742 87.16766753 112.9532863 88.74179401 112.953125 90.31591797 C112.9553062 92.69899502 112.97347796 95.08160456 112.99243164 97.46459961 C113.07635086 119.62072414 113.07635086 119.62072414 105.76782227 127.40405273 C97.51690649 132.95516969 89.48614273 133.55347741 79.82202148 133.56518555 C78.83580307 133.57015045 77.84958466 133.57511536 76.83348083 133.58023071 C73.57981662 133.59480108 70.32620121 133.60164661 67.07250977 133.60717773 C64.80054728 133.61293439 62.5285848 133.61869205 60.25662231 133.62445068 C55.49375178 133.63494679 50.73089805 133.64079823 45.96801758 133.64428711 C39.88895421 133.64976201 33.81011592 133.67377465 27.73112297 133.70225906 C23.03656381 133.72095941 18.342058 133.72609503 13.64746475 133.72762299 C11.40775449 133.73063448 9.16804484 133.73861173 6.92837143 133.75180817 C-22.90940717 133.91503579 -22.90940717 133.91503579 -30.90014648 126.07983398 C-35.90059651 119.78894524 -36.39105572 112.3388603 -36.29467773 104.59155273 C-36.29016602 103.89868164 -36.2856543 103.20581055 -36.28100586 102.49194336 C-36.2693093 100.79594205 -36.25137698 99.0999857 -36.23217773 97.40405273 C-32.50489602 96.562134 -28.7750777 95.73203593 -25.04467773 94.90405273 C-23.46203125 94.54633789 -23.46203125 94.54633789 -21.84741211 94.18139648 C-20.31503906 93.84301758 -20.31503906 93.84301758 -18.75170898 93.49780273 C-17.34562378 93.18359375 -17.34562378 93.18359375 -15.91113281 92.86303711 C-13.23217773 92.40405273 -13.23217773 92.40405273 -8.23217773 92.40405273 C-8.23217773 97.35405273 -8.23217773 102.30405273 -8.23217773 107.40405273 C22.45782227 107.40405273 53.14782227 107.40405273 84.76782227 107.40405273 C84.76782227 97.83405273 84.76782227 88.26405273 84.76782227 78.40405273 C82.06353027 78.41452637 79.35923828 78.425 76.57299805 78.43579102 C67.61240277 78.46901247 58.65180469 78.491055 49.69116402 78.50767708 C44.26127983 78.51808972 38.83145904 78.53220276 33.40161133 78.55493164 C28.15612036 78.57675004 22.91069018 78.58864029 17.66515732 78.59380722 C15.66941243 78.59748687 13.67367065 78.6046721 11.67795181 78.61551285 C8.87076013 78.63014745 6.06381583 78.63202571 3.2565918 78.63110352 C2.44162735 78.63829407 1.6266629 78.64548462 0.78700256 78.65289307 C-7.72221652 78.62287818 -17.21572665 77.63904408 -24.23217773 72.40405273 C-32.48068748 63.52588576 -31.55230659 50.1381432 -31.48217773 38.84155273 C-31.48991211 37.59180664 -31.49764648 36.34206055 -31.50561523 35.05444336 C-31.48343819 24.50371441 -31.31762069 13.73756608 -23.66967773 5.71655273 C-16.8960955 0.51601557 -8.22893479 -0.04156662 0 0 Z " fill="#1E1A16" transform="translate(3048.232177734375,768.595947265625)"/>
<path d="M0 0 C8.58 0 17.16 0 26 0 C30.04474027 4.62256031 33.88535971 9.02038545 37.5625 13.875 C38.42264168 15.00431424 39.28335207 16.13319548 40.14453125 17.26171875 C40.60166504 17.86161621 41.05879883 18.46151367 41.52978516 19.07958984 C44.24913181 22.63162916 47.00107965 26.15833169 49.75 29.6875 C50.34240479 30.44853027 50.93480957 31.20956055 51.54516602 31.99365234 C52.75851008 33.55233657 53.97197112 35.11092975 55.18554688 36.66943359 C57.54525169 39.70034616 59.9035171 42.73237641 62.26147461 45.76464844 C63.4156189 47.2486177 64.57007592 48.73234381 65.72485352 50.21582031 C68.78529118 54.14801901 71.8398784 58.08459719 74.88671875 62.02734375 C75.84094727 63.26000977 75.84094727 63.26000977 76.81445312 64.51757812 C78.03491518 66.09437946 79.25374781 67.67244376 80.47070312 69.25195312 C81.02048828 69.96158203 81.57027344 70.67121094 82.13671875 71.40234375 C82.61842529 72.02616943 83.10013184 72.64999512 83.59643555 73.29272461 C84.97680444 74.97178525 86.4369795 76.49128515 88 78 C95.33839747 68.62570457 102.62702276 59.22115317 109.74804688 49.68041992 C113.50711972 44.64648224 117.32323589 39.65944384 121.1640625 34.6875 C123.42155053 31.75958626 125.66165328 28.81875822 127.8984375 25.875 C128.94306152 24.50057739 128.94306152 24.50057739 130.00878906 23.09838867 C131.37894999 21.29463852 132.74815348 19.49016051 134.11621094 17.68481445 C134.76106445 16.8362085 135.40591797 15.98760254 136.0703125 15.11328125 C136.63508301 14.36860596 137.19985352 13.62393066 137.78173828 12.85668945 C141.13920307 8.53292812 144.58025921 4.27467598 148 0 C156.58 0 165.16 0 174 0 C174 43.89 174 87.78 174 133 C164.1 133 154.2 133 144 133 C144 103.3 144 73.6 144 43 C141.69 46.63 139.38 50.26 137 54 C134.8461303 56.87527384 132.68091917 59.69881929 130.4375 62.5 C125.55113707 68.69074564 120.77823137 74.9446403 116.125 81.3125 C110.94756525 88.38963288 105.69203087 95.40207304 100.375 102.375 C99.69969238 103.26098877 99.02438477 104.14697754 98.32861328 105.05981445 C97.0848262 106.68762434 95.83357504 108.30977142 94.57324219 109.92480469 C92.86246546 112.12050476 92.86246546 112.12050476 91.0390625 115.1015625 C89 117 89 117 85.15625 117.82421875 C82.50991143 117.64017348 81.32357298 117.27847732 79.30078125 115.53759766 C77.55089818 113.37454774 76.02145041 111.14199345 74.5 108.8125 C73.28360461 107.05695993 72.06476258 105.30311312 70.84375 103.55078125 C70.21597656 102.63506348 69.58820312 101.7193457 68.94140625 100.77587891 C65.77004901 96.24138044 62.38117701 91.87893487 59 87.5 C52.04840463 78.42309217 45.22990165 69.2544423 38.48193359 60.02539062 C37.14383499 58.19658239 35.80138603 56.37108599 34.45703125 54.546875 C33.74933594 53.58265625 33.04164063 52.6184375 32.3125 51.625 C31.73113281 50.83351563 31.14976562 50.04203125 30.55078125 49.2265625 C28.92381692 46.89061875 27.46461012 44.44101687 26 42 C26 72.03 26 102.06 26 133 C17.42 133 8.84 133 0 133 C0 89.11 0 45.22 0 0 Z " fill="#1E1A16" transform="translate(2329,769)"/>
<path d="M0 0 C45.21 0 90.42 0 137 0 C137 7.59 137 15.18 137 23 C102.35 23 67.7 23 32 23 C32 32.57 32 42.14 32 52 C52.13 52 72.26 52 93 52 C93 59.59 93 67.18 93 75 C72.87 75 52.74 75 32 75 C32 85.56 32 96.12 32 107 C66.98 107 101.96 107 138 107 C138 115.58 138 124.16 138 133 C92.46 133 46.92 133 0 133 C0 89.11 0 45.22 0 0 Z " fill="#1E1A16" transform="translate(1223,769)"/>
<path d="M0 0 C44.88 0 89.76 0 136 0 C136 7.59 136 15.18 136 23 C101.68 23 67.36 23 32 23 C32 32.57 32 42.14 32 52 C52.13 52 72.26 52 93 52 C93 59.59 93 67.18 93 75 C72.87 75 52.74 75 32 75 C32 85.56 32 96.12 32 107 C66.98 107 101.96 107 138 107 C138 115.58 138 124.16 138 133 C92.46 133 46.92 133 0 133 C0 89.11 0 45.22 0 0 Z " fill="#1E1A16" transform="translate(2036,769)"/>
<path d="M0 0 C39.18636847 -2.94824928 39.18636847 -2.94824928 48.328125 3.50390625 C51.96192524 6.86444892 54.85960399 10.60213885 57.52294922 14.76367188 C61.12790324 20.22175103 65.81881675 24.95855356 70.5 29.5 C74.07876691 33.01158869 77.34414457 36.66557045 80.4921875 40.56640625 C82.01560067 42.34452273 82.01560067 42.34452273 85 42 C87.03383404 40.04942232 88.89049896 38.10612839 90.75 36 C91.28931152 35.40203613 91.82862305 34.80407227 92.38427734 34.18798828 C93.93229131 32.46678298 95.46867986 30.73605902 97 29 C97.65742187 28.25492188 98.31484375 27.50984375 98.9921875 26.7421875 C100.07363825 25.50550459 101.15181506 24.2659504 102.2265625 23.0234375 C105.28632053 19.53234794 108.4337714 16.12060726 111.5625 12.69140625 C114.28944434 9.68040521 116.96771784 6.63107624 119.625 3.55859375 C122.75062587 0.01562579 122.75062587 0.01562579 126.62353516 -0.22705078 C128.17874689 -0.22673357 129.73398051 -0.21540299 131.2890625 -0.1953125 C132.51669815 -0.19106766 132.51669815 -0.19106766 133.76913452 -0.18673706 C136.38790393 -0.17552532 139.00633364 -0.15041929 141.625 -0.125 C143.39843257 -0.11497147 145.17187049 -0.1058454 146.9453125 -0.09765625 C151.29700626 -0.07558278 155.6484455 -0.04104644 160 0 C155.69506246 5.0918616 151.25715286 10.02003616 146.6875 14.875 C146.02814453 15.57753906 145.36878906 16.28007813 144.68945312 17.00390625 C140.50686119 21.44508827 136.24460844 25.78876864 131.8984375 30.0703125 C130.05455811 31.94454381 128.33370161 33.87750375 126.625 35.875 C123.7377767 39.24566534 120.65654178 42.38396087 117.5 45.5 C114.21705316 48.76483403 110.94405427 52.0264561 107.8125 55.4375 C107.26207031 56.03433594 106.71164062 56.63117187 106.14453125 57.24609375 C104.63566977 59.20925625 104.63566977 59.20925625 105 63 C107.01188613 65.37627174 109.01813977 67.50179487 111.2421875 69.66455078 C111.9054303 70.3251651 112.5686731 70.98577942 113.25201416 71.66641235 C115.45064089 73.85203622 117.66285432 76.02338005 119.875 78.1953125 C121.40058682 79.70836342 122.92515115 81.22244594 124.44873047 82.73751831 C128.46483532 86.72698713 132.49191312 90.70517925 136.5222168 94.68029785 C142.97637662 101.04828774 149.41718268 107.42971542 155.85162354 113.81762314 C158.10717722 116.05265191 160.36939237 118.28077618 162.63232422 120.5083313 C164.00771375 121.87007129 165.38288841 123.23202835 166.7578125 124.59423828 C167.39366272 125.21661377 168.02951294 125.83898926 168.68463135 126.48022461 C170.1614563 127.94922536 171.58670946 129.46977617 173 131 C173 131.66 173 132.32 173 133 C167.00446229 133.17361227 161.01040078 133.30033477 155.01293945 133.38452148 C152.97491964 133.41962907 150.93707496 133.46732863 148.8996582 133.52807617 C145.96261344 133.61342619 143.02790636 133.65278417 140.08984375 133.68359375 C139.18540024 133.71972275 138.28095673 133.75585175 137.34910583 133.79307556 C132.28381482 133.79618832 129.64570044 133.21547169 125.98364258 129.58520508 C124.96505363 128.41056057 123.96662736 127.21776217 123 126 C122.09507813 124.98679687 122.09507813 124.98679687 121.171875 123.953125 C120.70265625 123.39109375 120.2334375 122.8290625 119.75 122.25 C116.81720396 118.84161542 113.69927485 115.65600486 110.5 112.5 C106.76232026 108.81266786 103.22165733 105.03119788 99.81640625 101.03515625 C96.80002264 97.65550924 93.53417752 94.52613877 90.3125 91.34375 C87.68575536 88.68150881 85.31568123 85.93319623 83 83 C76.41576688 89.3718385 70.37378048 96.245688 64.625 103.375 C60.95053081 107.92007514 57.0875775 112.22039701 53.10839844 116.49487305 C49.10516686 120.82133375 45.37380913 125.3233228 41.6796875 129.91796875 C40 132 40 132 39 133 C36.1883662 133.08861992 33.40141745 133.11522355 30.58984375 133.09765625 C29.74780899 133.0962413 28.90577423 133.09482635 28.03822327 133.09336853 C25.33794665 133.08775263 22.63775172 133.07519748 19.9375 133.0625 C18.11132932 133.05748705 16.28515734 133.05292379 14.45898438 133.04882812 C9.97262458 133.03777804 5.48632616 133.02050279 1 133 C3.11186605 129.36652471 5.20734779 126.59716915 8.25 123.6875 C11.7542433 120.32616024 14.94942999 116.79547168 18.12597656 113.13012695 C21.24429008 109.58566559 24.50039675 106.1737174 27.75 102.75 C33.3251225 96.85160763 38.85614806 90.92008326 44.328125 84.92578125 C47.37632461 81.58791355 50.43591611 78.26078132 53.5 74.9375 C54.00499023 74.38868164 54.50998047 73.83986328 55.03027344 73.27441406 C57.30960382 70.80320523 59.59415355 68.34895144 62 66 C60.54811406 62.64956603 58.7180341 60.49513804 56.11328125 57.953125 C55.33919922 57.19 54.56511719 56.426875 53.76757812 55.640625 C52.95740234 54.85171875 52.14722656 54.0628125 51.3125 53.25 C49.72276944 51.69525128 48.13550077 50.13798104 46.55078125 48.578125 C45.84606689 47.89137695 45.14135254 47.20462891 44.4152832 46.49707031 C42.4425536 44.45753949 40.58741908 42.38669193 38.73681641 40.23901367 C34.90296393 35.82413823 30.81676167 31.70697568 26.66015625 27.59765625 C25.89319931 26.83448593 25.12624237 26.07131561 24.33604431 25.28501892 C21.91396374 22.87504822 19.48864179 20.46838174 17.0625 18.0625 C13.84222663 14.86871277 10.62520999 11.67169679 7.41015625 8.47265625 C6.66653336 7.7373317 5.92291046 7.00200714 5.15675354 6.24440002 C4.47862106 5.56957077 3.80048859 4.89474152 3.10180664 4.19946289 C2.50114883 3.6040419 1.90049103 3.00862091 1.28163147 2.39515686 C0 1 0 1 0 0 Z " fill="#1E1A16" transform="translate(1396,769)"/>
<path d="M0 0 C50.82 0 101.64 0 154 0 C154 7.92 154 15.84 154 24 C133.87 24 113.74 24 93 24 C93 59.97 93 95.94 93 133 C82.44 133 71.88 133 61 133 C61 97.03 61 61.06 61 24 C40.87 24 20.74 24 0 24 C0 16.08 0 8.16 0 0 Z " fill="#1E1A16" transform="translate(1033,769)"/>
<path d="M0 0 C50.49 0 100.98 0 153 0 C153 7.92 153 15.84 153 24 C132.87 24 112.74 24 92 24 C92 59.97 92 95.94 92 133 C81.44 133 70.88 133 60 133 C60 97.03 60 61.06 60 24 C40.2 24 20.4 24 0 24 C0 16.08 0 8.16 0 0 Z " fill="#1E1A16" transform="translate(1572,769)"/>
<path d="M0 0 C10.56 0 21.12 0 32 0 C32 35.31 32 70.62 32 107 C65 107 98 107 132 107 C132 115.58 132 124.16 132 133 C88.44 133 44.88 133 0 133 C0 89.11 0 45.22 0 0 Z " fill="#1E1A16" transform="translate(2665,769)"/>
<path d="M0 0 C10.56 0 21.12 0 32 0 C32 35.31 32 70.62 32 107 C64.67 107 97.34 107 131 107 C131 115.58 131 124.16 131 133 C87.77 133 44.54 133 0 133 C0 89.11 0 45.22 0 0 Z " fill="#1E1A16" transform="translate(2841,769)"/>
<path d="M0 0 C10.23 0 20.46 0 31 0 C31 35.31 31 70.62 31 107 C64 107 97 107 131 107 C131 115.58 131 124.16 131 133 C87.77 133 44.54 133 0 133 C0 89.11 0 45.22 0 0 Z " fill="#1E1A16" transform="translate(1861,769)"/>
<path d="M0 0 C10.56 0 21.12 0 32 0 C32 43.89 32 87.78 32 133 C21.44 133 10.88 133 0 133 C0 89.11 0 45.22 0 0 Z " fill="#1E1A16" transform="translate(2567,769)"/>
<path d="M0 0 C10.56 0 21.12 0 32 0 C32 43.89 32 87.78 32 133 C21.44 133 10.88 133 0 133 C0 89.11 0 45.22 0 0 Z " fill="#1E1A16" transform="translate(1762,769)"/>
</svg>
