<?xml version="1.0" encoding="UTF-8"?>
<svg version="1.1" xmlns="http://www.w3.org/2000/svg" width="1254" height="1254">
<path d="M0 0 C413.82 0 827.64 0 1254 0 C1254 413.82 1254 827.64 1254 1254 C840.18 1254 426.36 1254 0 1254 C0 840.18 0 426.36 0 0 Z " fill="#FDFDFD" transform="translate(0,0)"/>
<path d="M0 0 C0.98733124 -0.00570007 1.97466248 -0.01140015 2.99191284 -0.01727295 C5.06751458 -0.02664934 7.14313071 -0.03322729 9.21875 -0.03710938 C12.33881583 -0.046787 15.45821377 -0.07787069 18.578125 -0.109375 C30.5031337 -0.17273748 41.59795 0.65089952 53.2421875 3.203125 C55.26144073 3.59648199 57.28094481 3.98855507 59.30078125 4.37890625 C75.88225216 7.81994755 91.25237 12.20855567 106.2421875 20.203125 C108.17615583 21.16701976 110.1169858 22.11626209 112.05786133 23.06616211 C124.11386731 28.99054205 135.53536787 35.68355478 146.76293945 43.0480957 C151.70743165 46.26866553 156.72614143 49.30668451 161.8671875 52.203125 C162.50575684 52.56462646 163.14432617 52.92612793 163.80224609 53.29858398 C167.84798991 55.54521312 171.95177655 57.45244007 176.2421875 59.203125 C177.65757812 59.78126953 177.65757812 59.78126953 179.1015625 60.37109375 C193.07481703 65.29949839 208.58443882 64.99630205 222.25195312 59.16210938 C229.01151552 55.9050484 235.11030232 51.49005487 241.2421875 47.203125 C254.14124856 38.2908331 267.32602671 30.43464282 281.2421875 23.203125 C282.20825928 22.68758057 282.20825928 22.68758057 283.19384766 22.16162109 C292.19253642 17.38321797 301.74004386 14.18632679 311.3671875 10.953125 C312.00462891 10.73807312 312.64207031 10.52302124 313.29882812 10.30145264 C321.85594176 7.43209865 330.38661205 4.95574632 339.2421875 3.203125 C339.8992569 3.06795471 340.55632629 2.93278442 341.23330688 2.79351807 C354.51476956 0.12502474 367.59171146 -0.26297307 381.11108398 -0.18798828 C384.5399584 -0.17194392 387.967646 -0.18790723 391.39648438 -0.20703125 C410.34348092 -0.22677187 428.73203729 1.47454631 447.0546875 6.453125 C448.76084229 6.90764038 448.76084229 6.90764038 450.50146484 7.37133789 C459.07502766 9.72678584 467.24398184 12.57666474 475.30908203 16.31152344 C477.26350814 17.21295867 479.23259696 18.07308529 481.20703125 18.9296875 C494.11726982 24.64621528 506.17874495 31.90162563 518.2421875 39.203125 C518.96100098 39.63802246 519.67981445 40.07291992 520.42041016 40.52099609 C534.17065757 48.91785146 546.93178526 58.83464536 559.2421875 69.203125 C559.78584961 69.65655273 560.32951172 70.10998047 560.88964844 70.57714844 C571.80997802 79.69467961 582.14634897 89.22156385 591.2421875 100.203125 C591.66048828 100.70231445 592.07878906 101.20150391 592.50976562 101.71582031 C604.80057313 116.44256672 615.28028958 132.24897713 624.2421875 149.203125 C624.7678833 150.19675049 624.7678833 150.19675049 625.30419922 151.21044922 C641.35993753 181.83404968 650.42469338 215.91954192 650.37590027 250.56617737 C650.3792986 252.36207169 650.3792986 252.36207169 650.38276559 254.19424671 C650.38796709 257.48671611 650.38875628 260.77915081 650.38757122 264.07162297 C650.38736586 267.63486497 650.39289884 271.19809904 650.39762878 274.76133728 C650.40590733 281.73157665 650.40868237 288.70180756 650.40924116 295.67205144 C650.40971774 301.3438326 650.41177953 307.01561099 650.41494179 312.68739128 C650.42374142 328.80045448 650.42836235 344.91351103 650.42761131 361.02657665 C650.42755138 362.32741901 650.42755138 362.32741901 650.42749023 363.65454102 C650.42742891 364.95698897 650.42742891 364.95698897 650.42736635 366.28574901 C650.42696028 380.34406261 650.43652198 394.40234938 650.4506286 408.46065522 C650.46502953 422.92751104 650.47189672 437.3943538 650.47103482 451.86121696 C650.47070409 459.97035636 650.47339643 468.07946764 650.48421288 476.18860054 C650.49336702 483.09530082 650.49545319 490.00196024 650.48870345 496.908664 C650.4854626 500.42483665 650.48529208 503.94093113 650.4940567 507.4570961 C650.53047213 525.35504022 650.43943228 543.0978155 646.1171875 560.578125 C645.90545898 561.44187744 645.69373047 562.30562988 645.47558594 563.19555664 C639.39156944 586.7764687 628.03049068 609.32431539 607.2421875 623.203125 C589.38755969 633.25944732 569.025411 636.42321388 549.0546875 631.578125 C530.54580308 625.77500942 515.7747153 612.91158687 506.2421875 596.203125 C505.91331543 595.63287598 505.58444336 595.06262695 505.24560547 594.47509766 C498.9909151 583.54482774 493.59128493 572.18797419 491.74501705 559.6039362 C491.3623439 557.01578451 490.94841545 554.44029142 490.5145731 551.86071682 C488.32531455 538.36435257 487.81002007 525.21368081 487.84155273 511.56079102 C487.83579355 509.27501571 487.82870404 506.98924344 487.82040405 504.70347595 C487.8054242 499.82724247 487.79950504 494.95111753 487.80093193 490.07486153 C487.80298457 482.35273914 487.78327499 474.63076045 487.76075745 466.90867615 C487.73129554 456.0765697 487.71061714 445.24449223 487.69848633 434.41235352 C487.69771684 433.72809754 487.69694735 433.04384156 487.69615454 432.33885055 C487.69305221 429.56633945 487.68996941 426.79382834 487.6869145 424.02131719 C487.67836897 416.3746415 487.66746789 408.7279699 487.65551758 401.08129883 C487.65444956 400.3957747 487.65338154 399.71025057 487.65228116 399.00395299 C487.63414165 387.54261551 487.60808377 376.08130953 487.57738644 364.6199984 C487.55755554 356.95425596 487.54789101 349.28858996 487.54643428 341.62282288 C487.54367198 336.84866517 487.53281672 332.07454937 487.51992416 327.30040932 C487.51566812 325.09868511 487.51476838 322.89695126 487.51759911 320.69522476 C487.55458571 288.1833867 481.06412803 258.27608933 459.2421875 233.203125 C458.71367188 232.59082031 458.18515625 231.97851562 457.640625 231.34765625 C441.74749157 214.2410077 415.38148519 203.44344022 392.36816406 202.02612305 C359.71626202 201.35588855 333.18522276 208.20154009 308.875 231.46875 C300.69071531 240.0211859 294.7270664 250.30022975 290.2421875 261.203125 C289.91476562 261.91855469 289.58734375 262.63398437 289.25 263.37109375 C286.79386656 268.98977069 285.15623741 274.78216873 283.6171875 280.703125 C283.41109863 281.4664917 283.20500977 282.2298584 282.99267578 283.01635742 C279.02928411 298.85224475 278.94881193 315.12041778 278.97094727 331.33642578 C278.96654848 333.49715875 278.96124218 335.65789003 278.95510864 337.81861877 C278.9436957 342.43621986 278.93815567 347.05377559 278.93722725 351.67139053 C278.93526784 358.99694134 278.91711247 366.32239992 278.89646912 373.6479187 C278.84753253 391.84193376 278.8164696 410.03597364 278.79516602 428.2300415 C278.77857242 442.38097827 278.75556807 456.53183486 278.71214527 470.68271816 C278.69057258 477.94010171 278.68229177 485.19733219 278.68453801 492.45474553 C278.68285171 496.99997439 278.66868526 501.54510617 278.65132523 506.09029961 C278.64580428 508.17010086 278.64516615 510.24992293 278.65026283 512.32972527 C278.69094196 530.90133151 277.94019228 550.38478802 272.2421875 568.203125 C271.85546875 569.46382812 271.46875 570.72453125 271.0703125 572.0234375 C265.67539205 588.84567305 258.14561411 603.96542905 245.2421875 616.203125 C244.26185547 617.21052734 244.26185547 617.21052734 243.26171875 618.23828125 C230.24927898 630.86228998 211.49756391 634.86311647 193.96630859 634.67382812 C175.3222308 634.03269284 157.88754194 626.2829837 144.9453125 612.8125 C133.70097294 599.86212272 126.68751399 584.30591768 122.1796875 567.890625 C121.93669922 567.06240234 121.69371094 566.23417969 121.44335938 565.38085938 C116.5471226 547.65310554 115.80659534 529.67569363 115.88916016 511.39990234 C115.88832686 509.09581414 115.886103 506.79172609 115.88261414 504.48764038 C115.87770667 499.56885891 115.8816766 494.65019762 115.89262772 489.73142624 C115.90915968 481.92593339 115.9004427 474.12058682 115.88778687 466.31509399 C115.87160231 455.34921928 115.86291942 444.38336742 115.86328125 433.41748047 C115.86329869 432.72467207 115.86331613 432.03186366 115.8633341 431.31806107 C115.86378577 423.59895968 115.86710649 415.87986477 115.87420654 408.1607666 C115.87483893 407.46752957 115.87547131 406.77429254 115.87612285 406.06004832 C115.87675542 405.3674672 115.87738798 404.67488608 115.87803972 403.96131766 C115.87930952 402.56454381 115.88057493 401.16776995 115.88183594 399.77099609 C115.88246413 399.08087423 115.88309232 398.39075236 115.88373955 397.6797177 C115.89376004 386.09286049 115.88395127 374.50611597 115.85965192 362.91928065 C115.84701832 356.44361017 115.84389412 349.96825293 115.86433792 343.49259567 C118.01040472 298.25125671 118.01040472 298.25125671 104.2421875 256.203125 C104.2421875 254.883125 104.2421875 253.563125 104.2421875 252.203125 C103.5821875 252.203125 102.9221875 252.203125 102.2421875 252.203125 C101.9740625 251.59726562 101.7059375 250.99140625 101.4296875 250.3671875 C91.88396865 229.95693337 73.80394543 216.36427028 53.15136719 208.39648438 C30.21270734 200.20642118 3.56955258 198.73813936 -19.7578125 206.203125 C-20.43553711 206.41211426 -21.11326172 206.62110352 -21.81152344 206.83642578 C-50.75099612 215.9784504 -72.66283549 236.77902316 -86.6328125 263.265625 C-94.31733277 279.25087708 -98.73235919 301.13804554 -92.9140625 318.5390625 C-84.8690633 337.07517552 -72.28653841 348.24159771 -55.7578125 359.203125 C-23.25002504 380.79444016 -6.42195235 412.2907249 1.5 449.9921875 C7.96819316 484.29379027 7.19441563 523.24712756 -4.7578125 556.203125 C-5.2046502 557.52422469 -5.64993099 558.84585188 -6.09375 560.16796875 C-11.36573726 575.46525293 -19.34939956 588.85608164 -29.7578125 601.203125 C-30.18819824 601.71858887 -30.61858398 602.23405273 -31.06201172 602.76513672 C-51.89114424 627.4249143 -82.79658417 642.25889374 -114.7578125 645.203125 C-119.82456947 645.47921501 -124.87172545 645.53744136 -129.9453125 645.515625 C-130.9482132 645.51338928 -130.9482132 645.51338928 -131.97137451 645.5111084 C-148.11769908 645.44680144 -163.52826923 643.82258214 -178.7578125 638.203125 C-179.70140625 637.86796875 -180.645 637.5328125 -181.6171875 637.1875 C-196.37766773 631.52266705 -209.19081009 622.85737973 -220.7578125 612.203125 C-221.41910156 611.62304688 -222.08039063 611.04296875 -222.76171875 610.4453125 C-244.71553286 590.17241687 -254.94246474 558.30864404 -256.12745667 529.30708885 C-256.30378347 522.35504279 -256.30711798 515.40431039 -256.28071117 508.45044744 C-256.27148927 504.84088367 -256.28571351 501.23139017 -256.29663086 497.62184143 C-256.31424349 490.58547208 -256.31065377 483.54927519 -256.2989803 476.5128996 C-256.28987513 470.78285531 -256.28875222 465.0528587 -256.29307556 459.32280922 C-256.29368849 458.50124812 -256.29430143 457.67968703 -256.29493293 456.83323014 C-256.29621209 455.16320169 -256.29750895 453.49317325 -256.2988233 451.82314483 C-256.31017912 436.23064406 -256.29719555 420.63823797 -256.27562183 405.04575274 C-256.2577655 391.72894077 -256.26085264 378.41226842 -256.27929688 365.09545898 C-256.30081004 349.55605366 -256.30907045 334.016731 -256.29684782 318.47731286 C-256.2955739 316.81317128 -256.29431641 315.14902968 -256.29307556 313.48488808 C-256.29245846 312.66653393 -256.29184136 311.84817978 -256.29120556 311.00502702 C-256.28778304 305.29767984 -256.2935134 299.59038602 -256.30299377 293.8830471 C-256.31433263 286.90476764 -256.3109293 279.92666758 -256.2898708 272.94840809 C-256.27951561 269.40260476 -256.27496402 265.85709801 -256.28846741 262.31129837 C-256.40105658 223.23651979 -249.34540359 186.75398003 -230.7578125 152.203125 C-230.37367188 151.4802832 -229.98953125 150.75744141 -229.59375 150.01269531 C-221.51897817 134.87249813 -212.36651652 120.70346895 -201.7578125 107.203125 C-201.03207031 106.27113281 -200.30632812 105.33914063 -199.55859375 104.37890625 C-193.26035659 96.62020829 -186.2980746 89.53220014 -179.2578125 82.453125 C-178.77334656 81.96339203 -178.28888062 81.47365906 -177.78973389 80.96908569 C-171.12844948 74.25193172 -164.18988578 68.06092413 -156.7578125 62.203125 C-156.16661621 61.72697754 -155.57541992 61.25083008 -154.96630859 60.76025391 C-111.67705886 25.93356427 -56.25444942 0.26044012 0 0 Z " fill="#B9261E" transform="translate(429.7578125,259.796875)"/>
<path d="M0 0 C1.06079773 0.00015106 2.12159546 0.00030212 3.21453857 0.00045776 C4.35320374 0.01078033 5.4918689 0.02110291 6.66503906 0.03173828 C8.42113495 0.03598312 8.42113495 0.03598312 10.21270752 0.04031372 C13.95213031 0.05150922 17.69131365 0.07661302 21.43066406 0.10205078 C23.96581685 0.11208138 26.5009734 0.12120709 29.03613281 0.12939453 C35.25105827 0.15144652 41.46584406 0.18491803 47.68066406 0.22705078 C47.68066406 0.55705078 47.68066406 0.88705078 47.68066406 1.22705078 C43.72066406 1.22705078 39.76066406 1.22705078 35.68066406 1.22705078 C35.68066406 1.88705078 35.68066406 2.54705078 35.68066406 3.22705078 C35.05724121 3.19675781 34.43381836 3.16646484 33.79150391 3.13525391 C14.78180696 0.66481455 14.78180696 0.66481455 -3.31933594 3.22705078 C-5.32734049 2.94593014 -7.32947645 2.61637112 -9.31933594 2.22705078 C-6.09354946 0.32004554 -3.72573634 -0.0177416 0 0 Z " fill="#BC2C24" transform="translate(793.3193359375,259.77294921875)"/>
<path d="M0 0 C1.00023193 0.00523682 2.00046387 0.01047363 3.03100586 0.01586914 C4.1105957 0.0190918 5.19018555 0.02231445 6.30249023 0.02563477 C8.00695312 0.03820312 8.00695312 0.03820312 9.74584961 0.05102539 C11.45611328 0.05779297 11.45611328 0.05779297 13.20092773 0.06469727 C16.02845312 0.07652792 18.85587601 0.09301129 21.68334961 0.11352539 C21.68334961 0.44352539 21.68334961 0.77352539 21.68334961 1.11352539 C17.72334961 1.11352539 13.76334961 1.11352539 9.68334961 1.11352539 C9.68334961 1.77352539 9.68334961 2.43352539 9.68334961 3.11352539 C8.26711745 3.16799586 6.8502677 3.20653047 5.43334961 3.23852539 C4.64444336 3.26172852 3.85553711 3.28493164 3.04272461 3.30883789 C0.4760302 3.09636319 -1.10825709 2.40006644 -3.31665039 1.11352539 C-2.31665039 0.11352539 -2.31665039 0.11352539 0 0 Z " fill="#C0362D" transform="translate(819.316650390625,259.886474609375)"/>
<path d="M0 0 C-3.73631643 2.39954544 -7.02795498 2.22993687 -11.390625 2.1953125 C-12.09523865 2.1924826 -12.79985229 2.18965271 -13.52581787 2.18673706 C-15.7673876 2.17557801 -18.00855186 2.15048193 -20.25 2.125 C-21.77343171 2.11496464 -23.29686971 2.10583976 -24.8203125 2.09765625 C-28.54700586 2.07565291 -32.27346333 2.04115272 -36 2 C-36 1.67 -36 1.34 -36 1 C-35.35039307 0.97494385 -34.70078613 0.9498877 -34.03149414 0.92407227 C-31.04168912 0.80686149 -28.05210465 0.68471081 -25.0625 0.5625 C-23.53012695 0.50352539 -23.53012695 0.50352539 -21.96679688 0.44335938 C-16.57606156 0.21946302 -11.27642248 -0.11848964 -5.93530273 -0.89868164 C-3.76865432 -1.01211158 -2.06867259 -0.62068834 0 0 Z " fill="#E6ADAC" transform="translate(328,904)"/>
<path d="M0 0 C-8.07744875 5.74031891 -8.07744875 5.74031891 -14 5 C-5.5985874 -1.78575633 -5.5985874 -1.78575633 0 0 Z " fill="#BF362E" transform="translate(717,283)"/>
<path d="M0 0 C0.66 0.33 1.32 0.66 2 1 C1.360625 1.12375 0.72125 1.2475 0.0625 1.375 C-0.618125 1.58125 -1.29875 1.7875 -2 2 C-2.33 2.66 -2.66 3.32 -3 4 C-8.24055755 7.14433453 -8.24055755 7.14433453 -11.19921875 6.58203125 C-11.79347656 6.38996094 -12.38773437 6.19789063 -13 6 C-10.87959258 4.96966118 -8.75352092 3.95097146 -6.625 2.9375 C-5.44164062 2.36902344 -4.25828125 1.80054688 -3.0390625 1.21484375 C-2.03617187 0.81394531 -1.03328125 0.41304688 0 0 Z " fill="#C74D45" transform="translate(342,280)"/>
<path d="M0 0 C0.66 0.33 1.32 0.66 2 1 C-1.49087093 5.0042343 -3.64951939 6.62671065 -9 7 C-6.25604436 4.05278838 -3.61662784 1.80831392 0 0 Z " fill="#C13D36" transform="translate(307,298)"/>
<path d="M0 0 C-5.47340424 2.41473716 -10.12752736 3.55447805 -16 2 C-16 1.67 -16 1.34 -16 1 C-14.0852312 0.63571223 -12.16807707 0.28394694 -10.25 -0.0625 C-9.18265625 -0.25972656 -8.1153125 -0.45695312 -7.015625 -0.66015625 C-4.25228095 -0.97156937 -2.59053383 -0.8991416 0 0 Z " fill="#CB5E57" transform="translate(407,263)"/>
<path d="M0 0 C1.9375 0.625 1.9375 0.625 4 2 C4.75 5.125 4.75 5.125 5 8 C2.20127563 5.47211993 0.54226981 3.79588866 0 0 Z " fill="#BB3027" transform="translate(522,493)"/>
<path d="M0 0 C-4.73778043 2.36889021 -6.63970918 3.04875255 -12 2 C-8.09971775 -0.60018816 -4.52565431 -0.15085514 0 0 Z " fill="#D06A63" transform="translate(796,260)"/>
</svg>
